<svg xmlns="http://www.w3.org/2000/svg" width="1200" height="800" viewBox="0 0 1200 800">
  <defs>
    <linearGradient id="g" x1="0" y1="0" x2="1" y2="1">
      <stop offset="0" stop-color="#604a3d"/>
      <stop offset="1" stop-color="#d59d70"/>
    </linearGradient>
    <filter id="grain"><feTurbulence baseFrequency=".65" numOctaves="2" stitchTiles="stitch" type="fractalNoise"/><feColorMatrix type="saturate" values="0"/><feComponentTransfer><feFuncA type="table" tableValues="0 .09"/></feComponentTransfer></filter>
  </defs>
  <rect width="1200" height="800" fill="url(#g)"/>
  <circle cx="1020" cy="130" r="190" fill="#fff" opacity=".14"/>
  <circle cx="1020" cy="130" r="120" fill="none" stroke="#fff" stroke-width="3" opacity=".5"/>
  <path d="M0 590 C220 490 340 710 565 595 C790 480 900 660 1200 520 V800 H0Z" fill="#132824" opacity=".28"/>
  <path d="M0 665 C250 550 430 760 685 615 C870 510 1035 660 1200 600 V800 H0Z" fill="#fff" opacity=".12"/>
  <rect x="66" y="70" rx="22" width="235" height="52" fill="#fff" opacity=".17"/>
  <text x="92" y="106" font-family="Arial, sans-serif" font-size="27" font-weight="700" letter-spacing="4" fill="#fff">BANGKOK</text>
  <text x="70" y="455" font-family="Arial, 'Noto Sans SC', sans-serif" font-size="80" font-weight="700" fill="#fff">Talat Noi &amp; Song Wat</text>
  <text x="73" y="525" font-family="Arial, 'Noto Sans SC', sans-serif" font-size="34" fill="#fff" opacity=".92">老街 · 咖啡 · 涂鸦</text>
  <text x="805" y="350" font-family="Arial, sans-serif" font-size="45" font-weight="700" letter-spacing="5" text-anchor="middle" fill="#fff" opacity=".83">STREET</text>
  <rect width="1200" height="800" filter="url(#grain)" opacity=".55"/>
</svg>